<svg width="187" height="42" viewBox="0 0 187 42" fill="none" xmlns="http://www.w3.org/2000/svg">
<path id="SIMULATED STOCK INVESTMENT" d="M12.26 12.5C12.26 15.3 10.2 17.32 6.56 17.32C2.96 17.32 0.86 15.34 0.86 12.56V12.26H4.14V12.6C4.14 13.82 5.04 14.66 6.56 14.66C8.06 14.66 8.96 13.82 8.96 12.6C8.96 11.52 8.28 10.78 6.8 10.48L5.1 10.14C2.44 9.62 0.82 8.18 0.82 5.52C0.82 3 2.72 0.939999 6.24 0.939999C9.76 0.939999 11.66 3.02 11.66 5.44V5.68H8.38V5.44C8.38 4.36 7.62 3.62 6.24 3.62C4.84 3.62 4.1 4.36 4.1 5.44C4.1 6.54 4.78 7.1 6.3 7.42L8 7.76C10.76 8.32 12.26 9.88 12.26 12.5ZM17.3506 1.22V17.04H14.0706V1.22H17.3506ZM29.1356 17.04H26.4156L22.8956 7.82V17.04H19.6956V1.22H23.0356L27.7756 13.62L32.5156 1.22H35.8556V17.04H32.6556V7.82L29.1356 17.04ZM44.1713 17.32C40.0713 17.32 38.1113 14.9 38.1113 11.18V1.22H41.4113V11.04C41.4113 13.4 42.2713 14.56 44.1713 14.56C46.0513 14.56 46.9313 13.4 46.9313 11.04V1.22H50.2113V11.18C50.2113 14.9 48.2513 17.32 44.1713 17.32ZM52.4691 17.04V1.22H55.7491V14.3H62.3891V17.04H52.4691ZM76.5958 17.04H73.2358L72.3758 14H67.0558L66.1958 17.04H62.8358L67.8958 1.22H71.5358L76.5958 17.04ZM69.7158 4.6L67.7958 11.32H71.6158L69.7158 4.6ZM75.9436 3.96V1.22H87.6236V3.96H83.4236V17.04H80.1236V3.96H75.9436ZM89.0511 17.04V1.22H98.8711V3.96H92.3311V7.56H98.0511V10.3H92.3311V14.3H98.9711V17.04H89.0511ZM109.727 9.12C109.727 5.06 108.807 3.92 106.587 3.92H104.187V14.36H106.587C108.807 14.36 109.727 13.2 109.727 9.12ZM106.787 17.04H100.887V1.22H106.787C111.987 1.22 113.007 4.9 113.007 9.12C113.007 13.38 111.987 17.04 106.787 17.04ZM132.006 12.5C132.006 15.3 129.946 17.32 126.306 17.32C122.706 17.32 120.606 15.34 120.606 12.56V12.26H123.886V12.6C123.886 13.82 124.786 14.66 126.306 14.66C127.806 14.66 128.706 13.82 128.706 12.6C128.706 11.52 128.026 10.78 126.546 10.48L124.846 10.14C122.186 9.62 120.566 8.18 120.566 5.52C120.566 3 122.466 0.939999 125.986 0.939999C129.506 0.939999 131.406 3.02 131.406 5.44V5.68H128.126V5.44C128.126 4.36 127.366 3.62 125.986 3.62C124.586 3.62 123.846 4.36 123.846 5.44C123.846 6.54 124.526 7.1 126.046 7.42L127.746 7.76C130.506 8.32 132.006 9.88 132.006 12.5ZM132.506 3.96V1.22H144.186V3.96H139.986V17.04H136.686V3.96H132.506ZM157.662 9.12C157.662 11.48 157.342 13.62 156.162 15.18C155.142 16.54 153.602 17.32 151.302 17.32C148.982 17.32 147.462 16.54 146.442 15.18C145.262 13.62 144.922 11.48 144.922 9.12C144.922 6.78 145.262 4.64 146.442 3.08C147.462 1.72 148.982 0.939999 151.302 0.939999C153.602 0.939999 155.142 1.72 156.162 3.08C157.342 4.64 157.662 6.78 157.662 9.12ZM148.222 9.12C148.222 11.46 148.462 12.64 149.022 13.46C149.502 14.18 150.262 14.56 151.302 14.56C152.342 14.56 153.102 14.18 153.582 13.46C154.142 12.64 154.362 11.46 154.362 9.12C154.362 6.8 154.142 5.62 153.582 4.8C153.102 4.08 152.342 3.7 151.302 3.7C150.262 3.7 149.502 4.08 149.022 4.8C148.462 5.62 148.222 6.8 148.222 9.12ZM159.336 9.12C159.336 6.78 159.676 4.64 160.856 3.08C161.876 1.72 163.396 0.939999 165.716 0.939999C169.476 0.939999 171.716 3.14 171.916 6.62H168.636C168.516 4.8 167.516 3.7 165.716 3.7C164.676 3.7 163.916 4.08 163.436 4.8C162.876 5.62 162.636 6.8 162.636 9.12C162.636 11.46 162.876 12.64 163.436 13.46C163.916 14.18 164.676 14.56 165.716 14.56C167.516 14.56 168.516 13.46 168.636 11.64H171.916C171.716 15.12 169.476 17.32 165.716 17.32C163.396 17.32 161.876 16.54 160.856 15.18C159.676 13.62 159.336 11.48 159.336 9.12ZM185.635 1.22L181.215 8.92L186.235 17.04H182.615L178.555 10.3H177.155V17.04H173.875V1.22H177.155V7.56H178.555L182.055 1.22H185.635ZM4.46 25.22V41.04H1.18V25.22H4.46ZM15.105 41.04L10.085 30.9V41.04H6.805V25.22H10.125L15.145 35.38V25.22H18.445V41.04H15.105ZM19.7889 25.22H23.1489L26.6689 37.52L30.1889 25.22H33.5489L28.4889 41.04H24.8489L19.7889 25.22ZM34.9105 41.04V25.22H44.7305V27.96H38.1905V31.56H43.9105V34.3H38.1905V38.3H44.8305V41.04H34.9105ZM57.8459 36.5C57.8459 39.3 55.7859 41.32 52.1459 41.32C48.5459 41.32 46.4459 39.34 46.4459 36.56V36.26H49.7259V36.6C49.7259 37.82 50.6259 38.66 52.1459 38.66C53.6459 38.66 54.5459 37.82 54.5459 36.6C54.5459 35.52 53.8659 34.78 52.3859 34.48L50.6859 34.14C48.0259 33.62 46.4059 32.18 46.4059 29.52C46.4059 27 48.3059 24.94 51.8259 24.94C55.3459 24.94 57.2459 27.02 57.2459 29.44V29.68H53.9659V29.44C53.9659 28.36 53.2059 27.62 51.8259 27.62C50.4259 27.62 49.6859 28.36 49.6859 29.44C49.6859 30.54 50.3659 31.1 51.8859 31.42L53.5859 31.76C56.3459 32.32 57.8459 33.88 57.8459 36.5ZM58.3459 27.96V25.22H70.0259V27.96H65.8259V41.04H62.5259V27.96H58.3459ZM80.8934 41.04H78.1734L74.6534 31.82V41.04H71.4534V25.22H74.7934L79.5334 37.62L84.2734 25.22H87.6134V41.04H84.4134V31.82L80.8934 41.04ZM89.9691 41.04V25.22H99.7891V27.96H93.2491V31.56H98.9691V34.3H93.2491V38.3H99.8891V41.04H89.9691ZM110.125 41.04L105.105 30.9V41.04H101.825V25.22H105.145L110.165 35.38V25.22H113.465V41.04H110.125ZM114.908 27.96V25.22H126.588V27.96H122.388V41.04H119.088V27.96H114.908Z" fill="white"/>
</svg>
